<?xml version="1.0" standalone="no"?>
<!DOCTYPE svg PUBLIC "-//W3C//DTD SVG 20010904//EN"
 "http://www.w3.org/TR/2001/REC-SVG-20010904/DTD/svg10.dtd">
<svg version="1.0" xmlns="http://www.w3.org/2000/svg"
 width="742.000000pt" height="742.000000pt" viewBox="0 0 742.000000 742.000000"
 preserveAspectRatio="xMidYMid meet">

<g transform="translate(0.000000,742.000000) scale(0.100000,-0.100000)"
fill="#000000" stroke="none">
<path d="M3437 7380 c-988 -113 -1737 -743 -2061 -1738 -167 -511 -219 -1138
-135 -1632 90 -535 328 -1103 696 -1665 386 -588 921 -1162 1353 -1449 73 -49
214 -130 227 -131 1 0 -3 -18 -9 -40 -14 -52 10 -109 59 -137 18 -11 33 -22
33 -24 0 -10 -63 -161 -87 -207 -34 -68 -98 -164 -137 -205 l-31 -33 24 -20
c13 -10 55 -29 95 -42 62 -19 93 -22 236 -22 143 0 174 3 236 22 40 13 81 31
93 41 l22 17 -40 44 c-49 53 -118 184 -161 306 -29 85 -30 91 -13 100 10 6 35
26 55 46 33 32 38 43 38 80 0 24 -4 50 -9 58 -7 11 13 27 90 72 622 359 1418
1295 1824 2144 279 582 399 1101 381 1640 -31 902 -314 1624 -837 2130 -343
331 -751 536 -1239 622 -122 21 -182 26 -385 28 -132 2 -275 0 -318 -5z m-236
-1056 c325 -61 582 -292 684 -614 33 -102 45 -290 26 -392 -54 -286 -224 -513
-476 -639 -142 -70 -231 -92 -385 -93 -93 0 -144 4 -200 18 -271 69 -478 236
-596 481 -73 151 -99 299 -82 467 50 503 534 866 1029 772z m486 -5784 c14 0
13 -3 -3 -21 -21 -23 -53 -43 -60 -36 -2 2 1 18 7 36 8 22 16 30 26 27 8 -3
22 -6 30 -6z"/>
</g>
</svg>
